<svg width="16" height="16" viewBox="0 0 16 16" fill="none" xmlns="http://www.w3.org/2000/svg">
                            <path fill-rule="evenodd" clipRule="evenodd" d="M3.38709 2.79756C3.47299 2.7151 3.58638 2.66699 3.7032 2.66699H14.6093C14.8086 2.66699 14.9083 2.90752 14.7674 3.0484L12.613 5.20282C12.5305 5.28528 12.4171 5.33339 12.2968 5.33339H1.39072C1.19143 5.33339 1.09179 5.09286 1.23267 4.95198L3.38709 2.79756ZM3.38709 10.8414C3.46955 10.759 3.58294 10.7108 3.7032 10.7108H14.6093C14.8086 10.7108 14.9083 10.9514 14.7674 11.0923L12.613 13.2467C12.5305 13.3291 12.4171 13.3772 12.2968 13.3772H1.39072C1.19143 13.3772 1.09179 13.1367 1.23267 12.9958L3.38709 10.8414ZM12.2968 6.66315C12.4171 6.66315 12.5305 6.71125 12.613 6.79372L14.7674 8.94814C14.9083 9.08902 14.8086 9.32954 14.6093 9.32954H3.7032C3.58294 9.32954 3.46955 9.28144 3.38709 9.19897L1.23267 7.04455C1.09179 6.90367 1.19143 6.66315 1.39072 6.66315H12.2968Z" fill="black" />
                          </svg>